<?xml version="1.0" standalone="no"?>
<!DOCTYPE svg PUBLIC "-//W3C//DTD SVG 20010904//EN"
 "http://www.w3.org/TR/2001/REC-SVG-20010904/DTD/svg10.dtd">
<svg version="1.0" xmlns="http://www.w3.org/2000/svg"
 width="400.000000pt" height="400.000000pt" viewBox="0 0 400.000000 400.000000"
 preserveAspectRatio="xMidYMid meet">
<metadata>
Created by potrace 1.14, written by Peter Selinger 2001-2017
</metadata>
<g transform="translate(0.000000,400.000000) scale(0.100000,-0.100000)"
fill="#000000" stroke="none">
<path d="M1357 3184 c-1 -2 -33 -6 -72 -9 -81 -8 -189 -39 -226 -66 -14 -10
-28 -16 -31 -14 -3 3 -11 -6 -18 -20 -7 -13 -26 -29 -41 -34 -16 -5 -29 -16
-29 -24 0 -10 -17 -17 -47 -23 -27 -4 -50 -8 -53 -9 -3 -1 -20 -6 -38 -10 -18
-4 -35 -12 -38 -16 -3 -5 -9 -7 -14 -4 -5 3 -30 -4 -56 -16 -25 -12 -53 -22
-60 -22 -8 0 -14 -4 -14 -9 0 -4 -7 -8 -15 -8 -8 0 -15 -4 -15 -8 0 -5 -18
-17 -40 -27 -22 -10 -45 -24 -52 -32 -6 -8 -32 -23 -57 -35 -60 -27 -163 -100
-225 -160 -27 -26 -55 -48 -60 -48 -19 -1 -69 -81 -70 -114 -1 -17 -10 -49
-20 -71 -10 -22 -19 -44 -20 -50 -17 -68 -26 -217 -15 -237 17 -30 25 -175 17
-298 -3 -51 0 -83 17 -180 14 -86 131 -240 197 -261 21 -7 46 -20 57 -30 10
-10 21 -16 23 -14 3 3 52 -19 133 -63 22 -12 56 -28 75 -37 19 -8 58 -31 85
-51 28 -19 66 -43 85 -53 74 -37 115 -63 128 -79 7 -9 16 -16 20 -16 4 1 18
-3 32 -8 14 -5 33 -11 42 -13 9 -2 25 -8 36 -14 11 -6 22 -7 26 -4 3 3 6 2 6
-3 0 -6 22 -23 50 -39 27 -17 50 -33 50 -37 0 -4 19 -13 43 -19 51 -15 49 -14
67 -21 65 -26 84 -28 100 -13 21 19 36 19 20 0 -7 -8 -9 -16 -4 -16 5 -1 20
-4 34 -7 14 -3 156 -7 315 -9 274 -3 313 -1 385 25 34 12 60 14 155 13 127 0
197 -5 210 -13 6 -4 17 -3 25 2 8 5 22 4 34 -2 10 -6 56 -12 100 -14 45 -2 97
-7 116 -10 93 -15 122 -15 167 -1 26 9 68 19 93 22 25 4 53 12 64 17 10 6 33
12 50 15 17 2 38 7 46 10 8 3 22 7 30 9 8 2 54 13 103 25 64 16 94 19 110 12
31 -14 58 -8 143 33 80 39 175 124 229 204 16 25 33 47 37 50 3 3 19 30 34 60
14 30 33 62 40 70 7 8 13 20 15 25 4 24 12 34 20 29 5 -3 9 6 9 21 0 14 7 42
16 63 9 20 21 60 25 87 5 28 11 64 15 80 3 17 7 39 8 51 1 11 5 25 9 31 26 41
26 383 1 473 -20 68 -95 151 -224 245 -58 43 -66 48 -180 105 -82 41 -147 71
-197 92 -18 7 -33 17 -33 21 0 5 -4 6 -8 3 -5 -3 -20 1 -35 9 -15 8 -27 12
-27 10 0 -2 -24 7 -52 19 -29 13 -68 30 -85 37 -18 8 -33 17 -33 21 0 5 -6 8
-13 8 -7 0 -37 13 -67 28 -30 16 -104 47 -165 70 -60 24 -122 49 -137 58 -37
20 -153 63 -203 75 -22 6 -65 19 -96 29 -30 11 -63 20 -73 20 -10 0 -48 9 -84
20 -37 10 -83 21 -102 24 -30 5 -159 26 -255 42 -71 11 -540 35 -548 28z"/>
</g>
</svg>
